<svg xmlns="http://www.w3.org/2000/svg" width="18" height="21" viewBox="0 0 921 764">
	<defs>
		<linearGradient id="3hpga" x1="386.17" x2="534.18" y1="763.32" y2=".73" gradientUnits="userSpaceOnUse">
			<stop offset="0" stop-color="#ff8f5a"/><stop offset=".1" stop-color="#ff8f5a"/>
			<stop offset=".9" stop-color="#ff3194"/><stop offset="1" stop-color="#ff3194"/>
		</linearGradient>
	</defs>
	<g>
		<path  fill="url(#3hpga)" transform="rotate(-80 570 440)" d="M664-149c-39-1-90 32-125 62-91 78-153 179-210 283-67 118-128 240-163 372-14 56-23 113-8 170 12 44 37 74 84 83 45 7 89 19 133 27 29 6 46-3 57-30 29-70 57-139 84-209 11-28 5-46-19-62-22-15-45-28-66-45-8-6-15-20-13-28 23-92 66-173 128-245 9-11 19-14 33-7 23 11 47 20 71 30 29 11 48 6 65-19 41-61 82-122 122-183 19-29 17-48-9-73-32-31-38-42-164-126z" />
	</g>
</svg>
