<svg xmlns="http://www.w3.org/2000/svg" width="921" height="764" viewBox="0 0 921 764">
	<defs>
		<linearGradient id="3hpga" x1="386.17" x2="534.18" y1="763.32" y2=".73" gradientUnits="userSpaceOnUse">
			<stop offset="0" stop-color="#ff8f5a"/><stop offset=".1" stop-color="#ff8f5a"/>
			<stop offset=".9" stop-color="#ff3194"/><stop offset="1" stop-color="#ff3194"/>
		</linearGradient>
	</defs>
	<g>
		<g>
			<path width="18" height="18" fill="url(#3hpga)" d="M150 255c-28.036 39.2-58.052 83.814-87 128-8.439 12.881-40.241 71.017-55 122-6.334 21.88-10.345 44.72-6 72 4.377 27.482 17.335 55.237 39 80 18.322 20.942 44.232 37.557 84 54 26.97 11.152 52.066 19.515 77 26 31.516 8.197 65.283 14.468 102 19 22.633 2.793 47.479 4.784 73 6 36.235 1.727 70.854 1.8 102 0 41.027-2.371 79.678-7.066 111-14 44.715-9.9 82.582-23.03 113-38 33.252-16.365 60.686-34.366 84-54 31.075-26.17 57.707-56.89 79-91 23.043-36.912 37.126-71.47 45-104a327.943 327.943 0 0 0 8-49c2.035-23.617 1.456-48.324-2-74-4.896-36.376-16.591-76.254-39-121-21.68-43.29-49.306-80.84-81-112-39.598-38.93-84.68-68.918-131-86-17.415-6.422-34.406-11.058-51-14-19.655-3.485-41.116-4.926-66-4-21.178.788-43.265 3.717-67 9-32.276 7.185-64.458 18.516-96 34-32.3 15.857-79.004 48.052-123 88-21.015 19.082-41.013 39.416-60 61"/>
		</g>
	</g>
</svg>